<?xml version="1.0" encoding="UTF-8" standalone="no"?>
<!-- Created with Inkscape (http://www.inkscape.org/) -->

<svg
   width="209.66885mm"
   height="49.224007mm"
   viewBox="0 0 209.66885 49.224007"
   version="1.1"
   id="svg5"
   inkscape:version="1.1.2 (0a00cf5339, 2022-02-04)"
   sodipodi:docname="logo.svg"
   xmlns:inkscape="http://www.inkscape.org/namespaces/inkscape"
   xmlns:sodipodi="http://sodipodi.sourceforge.net/DTD/sodipodi-0.dtd"
   xmlns="http://www.w3.org/2000/svg"
   xmlns:svg="http://www.w3.org/2000/svg">
  <sodipodi:namedview
     id="namedview7"
     pagecolor="#ffffff"
     bordercolor="#666666"
     borderopacity="1.0"
     inkscape:pageshadow="2"
     inkscape:pageopacity="0.0"
     inkscape:pagecheckerboard="0"
     inkscape:document-units="mm"
     showgrid="false"
     showguides="false"
     inkscape:guide-bbox="true"
     inkscape:zoom="0.5297696"
     inkscape:cx="698.41682"
     inkscape:cy="242.55827"
     inkscape:window-width="1920"
     inkscape:window-height="1024"
     inkscape:window-x="1366"
     inkscape:window-y="0"
     inkscape:window-maximized="1"
     inkscape:current-layer="layer1"
     inkscape:snap-others="false"
     inkscape:object-nodes="false"
     inkscape:snap-nodes="false"
     inkscape:snap-global="false"
     fit-margin-top="0"
     fit-margin-left="0"
     fit-margin-right="0"
     fit-margin-bottom="0">
    <sodipodi:guide
       position="71.397283,-16.279569"
       orientation="0,-1"
       id="guide3853" />
    <sodipodi:guide
       position="96.294427,12.149086"
       orientation="1,0"
       id="guide51590" />
    <sodipodi:guide
       position="239.3206,-16.279572"
       orientation="1,0"
       id="guide51592" />
    <sodipodi:guide
       position="103.7106,35.103906"
       orientation="0,-1"
       id="guide85225" />
    <sodipodi:guide
       position="196.63346,-0.36335365"
       orientation="0,-1"
       id="guide85975" />
    <sodipodi:guide
       position="32.903822,-45.414526"
       orientation="1,0"
       id="guide93485" />
    <sodipodi:guide
       position="189.87945,15.327446"
       orientation="0,-1"
       id="guide111786" />
    <sodipodi:guide
       position="161.62737,-44.001922"
       orientation="0,-1"
       id="guide111788" />
    <sodipodi:guide
       position="150.66024,6.1979763"
       orientation="0,-1"
       id="guide13537" />
  </sodipodi:namedview>
  <defs
     id="defs2">
    <rect
       x="456.50607"
       y="419.77698"
       width="560.69659"
       height="142.80064"
       id="rect11491" />
  </defs>
  <g
     inkscape:label="Layer 1"
     inkscape:groupmode="layer"
     id="layer1"
     transform="translate(-18.479652,-45.56242)">
    <rect
       style="fill:#000000;fill-opacity:0;stroke-width:0.574169"
       id="rect1050"
       width="221.13138"
       height="79.456299"
       x="302.09146"
       y="121.50751" />
    <g
       id="g1290"
       inkscape:export-filename="/home/alexandre/Dropbox/LAV/LAV grande azul.png"
       inkscape:export-xdpi="220.53999"
       inkscape:export-ydpi="220.53999"
       transform="translate(-289.34306,-81.314175)"
       style="fill:#ffffff;fill-opacity:1">
      <g
         id="g1270"
         style="fill:#ffffff;fill-opacity:1">
        <g
           aria-label="VALLIAS"
           transform="matrix(0.34825841,0,0,0.34681519,210.93988,-17.385)"
           id="g1074"
           style="font-size:96px;line-height:1.25;letter-spacing:0px;word-spacing:0px;white-space:pre;shape-inside:url(#rect11491);fill:#ffffff;fill-opacity:1">
          <path
             d="m 469.45771,438.73003 h 28.07089 v 3.40254 h -4.86076 c -2.02531,0 -3.40253,0.24304 -4.13165,0.72911 -0.72911,0.40506 -1.09367,1.01265 -1.09367,1.82278 0,0.64811 0.28355,1.57975 0.85064,2.79494 l 0.36455,0.97215 17.49874,44.47595 15.55443,-42.41012 c 0.32405,-0.89114 0.48607,-1.94431 0.48607,-3.1595 0,-1.70127 -0.52658,-2.99747 -1.57974,-3.88861 -0.97215,-0.89113 -2.30886,-1.3367 -4.01013,-1.3367 h -4.4962 v -3.40254 h 24.54683 v 3.40254 h -2.06582 c -1.45822,0 -2.91645,0.68861 -4.37468,2.06582 -1.45822,1.37721 -2.79493,3.72658 -4.01013,7.0481 l -20.65823,55.53418 h -3.28101 l -23.45316,-59.42279 c -0.81012,-2.02531 -1.78228,-3.40253 -2.91646,-4.13164 -1.05316,-0.72911 -2.47089,-1.09367 -4.25317,-1.09367 h -2.18734 z"
             style="font-family:Mandali;-inkscape-font-specification:Mandali;fill:#ffffff;fill-opacity:1"
             id="path1060"
             sodipodi:nodetypes="cccscsccccscsccccsscccccscc" />
          <path
             d="m 562.59178,436.78573 h 2.91646 l 23.93924,60.88101 q 1.45823,3.64557 5.83291,3.64557 h 2.06582 v 3.40253 h -26.49114 v -3.40253 h 2.06583 q 4.13164,0 5.95443,-0.97215 1.09367,-0.48608 1.09367,-1.82278 0,-0.72912 -0.24304,-1.57975 l -5.58987,-14.21772 h -26.2481 l -3.1595,8.02025 q -1.09367,3.28101 -1.09367,5.22532 0,2.30886 1.94431,3.8886 2.06582,1.45823 5.95443,1.45823 h 2.18734 v 3.40253 h -24.06076 v -3.40253 q 3.88861,0 6.07595,-1.57974 2.30886,-1.70127 4.25316,-6.56203 z m -1.33671,12.88101 -11.90886,29.65064 h 23.57469 z"
             style="font-family:Mandali;-inkscape-font-specification:Mandali;fill:#ffffff;fill-opacity:1"
             id="path1062" />
          <path
             d="m 601.35622,438.12244 h 30.86582 v 3.40253 h -7.41266 q -1.70127,0 -2.5519,0.97215 -0.85063,0.85064 -0.85063,2.79494 v 52.61772 q 0,1.9443 1.09367,2.67342 1.09367,0.72911 4.13165,0.72911 h 9.35696 q 7.53417,0 12.27342,-4.98228 4.86075,-4.98227 6.92658,-17.13417 h 3.15949 l -1.57975,25.51898 h -55.41265 v -3.40253 h 5.34683 q 2.91646,0 4.01013,-0.97215 1.09367,-1.09367 1.09367,-3.40253 V 444.9275 q 0,-1.70126 -0.97215,-2.5519 -0.85064,-0.85063 -2.79494,-0.85063 h -6.68354 z"
             style="font-family:Mandali;-inkscape-font-specification:Mandali;fill:#ffffff;fill-opacity:1"
             id="path1064" />
          <path
             d="m 662.72328,438.12244 h 30.86582 v 3.40253 h -7.41265 q -1.70127,0 -2.5519,0.97215 -0.85064,0.85064 -0.85064,2.79494 v 52.61772 q 0,1.9443 1.09368,2.67342 1.09367,0.72911 4.13164,0.72911 h 9.35696 q 7.53418,0 12.27342,-4.98228 4.86076,-4.98227 6.92658,-17.13417 h 3.1595 l -1.57975,25.51898 h -55.41266 v -3.40253 h 5.34684 q 2.91645,0 4.01012,-0.97215 1.09367,-1.09367 1.09367,-3.40253 V 444.9275 q 0,-1.70126 -0.97215,-2.5519 -0.85063,-0.85063 -2.79493,-0.85063 h -6.68355 z"
             style="font-family:Mandali;-inkscape-font-specification:Mandali;fill:#ffffff;fill-opacity:1"
             id="path1066" />
          <path
             d="m 724.69794,438.12244 h 30.74431 v 3.40253 h -5.34684 q -3.40253,0 -4.37468,0.85063 -0.97216,0.85064 -0.97216,3.76709 v 50.43038 q 0,3.03798 0.85064,3.64557 1.09367,1.09367 3.88861,1.09367 h 5.95443 v 3.40253 h -30.74431 v -3.40253 h 5.71139 q 3.1595,0 4.01013,-0.85063 0.97215,-0.85063 0.97215,-3.88861 v -50.43038 q 0,-2.91645 -0.85063,-3.64557 -1.21519,-0.97215 -4.61772,-0.97215 h -5.22532 z"
             style="font-family:Mandali;-inkscape-font-specification:Mandali;fill:#ffffff;fill-opacity:1"
             id="path1068" />
          <path
             d="m 792.86998,436.78573 h 2.91646 l 23.93924,60.88101 q 1.45823,3.64557 5.83291,3.64557 h 2.06582 v 3.40253 h -26.49114 v -3.40253 h 2.06583 q 4.13164,0 5.95443,-0.97215 1.09367,-0.48608 1.09367,-1.82278 0,-0.72912 -0.24304,-1.57975 l -5.58987,-14.21772 h -26.24811 l -3.15949,8.02025 q -1.09367,3.28101 -1.09367,5.22532 0,2.30886 1.9443,3.8886 2.06583,1.45823 5.95443,1.45823 h 2.18735 v 3.40253 h -24.06076 v -3.40253 q 3.8886,0 6.07595,-1.57974 2.30886,-1.70127 4.25316,-6.56203 z m -1.33671,12.88101 -11.90886,29.65064 h 23.57469 z"
             style="font-family:Mandali;-inkscape-font-specification:Mandali;fill:#ffffff;fill-opacity:1"
             id="path1070" />
          <path
             d="m 868.94074,443.59079 4.13165,-5.83291 h 3.15949 l 0.36456,24.3038 h -2.91646 q -2.79493,-11.05823 -8.26329,-16.16203 -5.46835,-5.22531 -12.63797,-5.22531 -5.95443,0 -9.72152,3.52405 -3.76709,3.52405 -3.76709,8.62785 0,3.28101 1.45823,5.71139 1.45823,2.43038 4.25316,3.88861 2.79494,1.45822 10.81519,3.15949 11.05823,2.43038 15.55443,4.98228 4.49621,2.43038 6.68355,6.19747 2.18734,3.76709 2.18734,8.74936 0,8.99241 -6.07595,14.94684 -5.95443,5.95443 -15.55443,5.95443 -10.32911,0 -17.98481,-6.68354 l -4.98228,6.19746 h -3.28101 v -25.76202 h 3.28101 q 1.82279,10.57215 8.38481,16.76962 6.56203,6.19747 14.82532,6.19747 6.68354,0 10.93671,-3.88861 4.25316,-4.01013 4.25316,-9.6 0,-3.15949 -1.70126,-5.58987 -1.57975,-2.43038 -4.98228,-4.01013 -3.40254,-1.70127 -13.36709,-4.01013 -11.05823,-2.67341 -15.18988,-5.83291 -5.46835,-4.61772 -5.46835,-13.00253 0,-8.74937 5.58987,-14.33924 5.58988,-5.71139 14.33924,-5.71139 4.13165,0 7.89874,1.57974 3.88861,1.45823 7.77721,4.86076 z"
             style="font-family:Mandali;-inkscape-font-specification:Mandali;fill:#ffffff;fill-opacity:1"
             id="path1072" />
        </g>
        <text
           xml:space="preserve"
           style="font-style:normal;font-weight:normal;font-size:9.58449px;line-height:1.25;font-family:sans-serif;letter-spacing:7.48787px;word-spacing:0px;fill:#ffffff;fill-opacity:1;stroke:none;stroke-width:0.299515"
           x="435.62851"
           y="168.74254"
           id="text1078"><tspan
             sodipodi:role="line"
             id="tspan1076"
             style="font-style:italic;font-variant:normal;font-weight:normal;font-stretch:normal;font-size:9.58449px;font-family:sans-serif;-inkscape-font-specification:'sans-serif Italic';fill:#ffffff;fill-opacity:1;stroke-width:0.299515"
             x="435.62851"
             y="168.74254">imóveis</tspan></text>
      </g>
      <g
         id="g1258"
         style="fill:#ffffff;fill-opacity:1">
        <g
           id="g1058"
           transform="translate(259.6584,15.881915)"
           style="fill:#ffffff;fill-opacity:1">
          <path
             id="path1052"
             style="opacity:1;fill:#ffffff;fill-opacity:1;stroke-width:0.529167"
             d="m 53.83599,111.1896 v 49.02905 h 48.7624 v -4.54753 H 58.359227 V 111.1896 Z" />
          <path
             id="path1054"
             style="opacity:1;fill:#ffffff;fill-opacity:1;stroke-width:0.650618"
             inkscape:transform-center-y="-6.7872766"
             d="m 82.792363,110.99468 -20.072678,40.72361 h 40.145355 z m 0.03462,11.88248 12.023037,24.20524 H 70.804462 Z" />
          <path
             id="path1056"
             style="fill:#ffffff;fill-opacity:1;stroke-width:0.656906"
             inkscape:transform-center-x="-1.24097e-06"
             inkscape:transform-center-y="6.9191215"
             d="m 62.719685,111.28777 20.072678,41.51465 20.072677,-41.51465 h -5.800164 l -2.29185,4.72595 h 0.0072 l -1.546675,3.1745 -10.473263,21.59784 -9.30279,-19.18403 -2.722832,-5.58831 h 0.01292 l -2.29185,-4.72595 z" />
        </g>
        <text
           xml:space="preserve"
           style="font-style:normal;font-weight:normal;font-size:4.3193px;line-height:1.25;font-family:sans-serif;letter-spacing:0px;word-spacing:0px;fill:#ffffff;fill-opacity:1;stroke:none;stroke-width:0.107982"
           x="-176.34314"
           y="311.02844"
           id="text1082"
           transform="rotate(-90)"><tspan
             sodipodi:role="line"
             id="tspan1080"
             style="font-style:normal;font-variant:normal;font-weight:normal;font-stretch:normal;font-family:sans-serif;-inkscape-font-specification:sans-serif;fill:#ffffff;fill-opacity:1;stroke-width:0.107982"
             x="-176.34314"
             y="311.02844">CRECI 18194</tspan></text>
      </g>
    </g>
  </g>
</svg>
